<svg width="278" height="280" viewBox="0 0 278 280" fill="none" xmlns="http://www.w3.org/2000/svg">
<path d="M271.632 9.48291L147.458 9.48291C141.935 9.48291 137.458 13.9601 137.458 19.4829L137.458 258.998C137.458 264.521 141.935 268.998 147.458 268.998H271.632" stroke="#4BD16F" stroke-width="4"/>
<path d="M138.637 139.24H1" stroke="#4BD16F" stroke-width="4"/>
<path fill-rule="evenodd" clip-rule="evenodd" d="M7.83216 147.762C11.6001 147.762 14.6546 144.404 14.6546 140.262C14.6546 136.12 11.6001 132.762 7.83216 132.762C4.06426 132.762 1.00977 136.12 1.00977 140.262C1.00977 144.404 4.06426 147.762 7.83216 147.762Z" fill="#4BD16F" stroke="#4BD16F"/>
<path fill-rule="evenodd" clip-rule="evenodd" d="M267.084 20V0L278 10L267.084 20Z" fill="#4BD16F"/>
<path fill-rule="evenodd" clip-rule="evenodd" d="M267.084 279.524V259.524L278 269.524L267.084 279.524Z" fill="#4BD16F"/>
</svg>
