<svg width="259" height="266" viewBox="0 0 259 266" fill="none" xmlns="http://www.w3.org/2000/svg">
<path fill-rule="evenodd" clip-rule="evenodd" d="M117 158C130.807 158 142 146.807 142 133C142 119.193 130.807 108 117 108C103.193 108 92 119.193 92 133C92 146.807 103.193 158 117 158Z" stroke="#FF2E00" stroke-width="3"/>
<path d="M109.496 135.42V140.208C109.496 140.424 109.424 140.616 109.28 140.784C109.136 140.928 108.944 141 108.704 141H108.452C108.188 141 107.996 140.916 107.876 140.748C107.756 140.556 107.696 140.376 107.696 140.208V135.42L103.88 127.572C103.832 127.5 103.796 127.404 103.772 127.284C103.748 127.164 103.748 127.044 103.772 126.924C103.82 126.78 103.892 126.672 103.988 126.6C104.108 126.504 104.276 126.456 104.492 126.456H104.852C105.092 126.456 105.272 126.528 105.392 126.672C105.512 126.792 105.596 126.9 105.644 126.996L108.596 133.152L111.548 126.996C111.596 126.9 111.68 126.792 111.8 126.672C111.92 126.528 112.112 126.456 112.376 126.456H112.664C113.072 126.456 113.3 126.6 113.348 126.888C113.396 127.152 113.396 127.368 113.348 127.536L109.496 135.42ZM116.552 136.608V137.868C116.552 138.852 116.984 139.344 117.848 139.344H121.484C121.964 139.344 122.204 139.584 122.204 140.064V140.28C122.204 140.52 122.12 140.7 121.952 140.82C121.808 140.94 121.652 141 121.484 141H117.848C116.936 141 116.216 140.724 115.688 140.172C115.184 139.596 114.932 138.84 114.932 137.904V133.512C114.932 132.576 115.184 131.832 115.688 131.28C116.216 130.704 116.936 130.416 117.848 130.416H119.396C120.332 130.416 121.052 130.704 121.556 131.28C122.06 131.832 122.312 132.576 122.312 133.512V135.852C122.312 136.02 122.252 136.188 122.132 136.356C122.036 136.524 121.868 136.608 121.628 136.608H116.552ZM117.848 132.072C116.984 132.072 116.552 132.552 116.552 133.512V134.952H120.692V133.512C120.692 132.552 120.26 132.072 119.396 132.072H117.848ZM125.082 141C124.938 141 124.782 140.94 124.614 140.82C124.47 140.7 124.398 140.52 124.398 140.28V140.064C124.398 139.584 124.626 139.344 125.082 139.344H128.034C128.514 139.344 128.838 139.26 129.006 139.092C129.174 138.924 129.258 138.696 129.258 138.408V137.868C129.258 137.484 129.21 137.22 129.114 137.076C129.018 136.908 128.826 136.764 128.538 136.644L126.27 135.816C125.55 135.552 125.034 135.216 124.722 134.808C124.434 134.376 124.29 133.788 124.29 133.044C124.29 132.18 124.518 131.532 124.974 131.1C125.454 130.644 126.126 130.416 126.99 130.416H129.762C130.002 130.416 130.17 130.5 130.266 130.668C130.386 130.836 130.446 130.992 130.446 131.136V131.352C130.446 131.832 130.218 132.072 129.762 132.072H126.99C126.558 132.072 126.27 132.156 126.126 132.324C126.006 132.468 125.946 132.624 125.946 132.792V133.296C125.946 133.536 125.994 133.716 126.09 133.836C126.186 133.932 126.414 134.052 126.774 134.196L129.042 135.096C129.762 135.384 130.242 135.792 130.482 136.32C130.722 136.824 130.842 137.484 130.842 138.3C130.842 139.236 130.602 139.92 130.122 140.352C129.642 140.784 128.946 141 128.034 141H125.082Z" fill="#FF2E00"/>
<path d="M11.6337 133H92" stroke="#FF2E00" stroke-width="3" stroke-dasharray="3"/>
<path fill-rule="evenodd" clip-rule="evenodd" d="M6 138C8.76142 138 11 135.761 11 133C11 130.239 8.76142 128 6 128C3.23858 128 1 130.239 1 133C1 135.761 3.23858 138 6 138Z" fill="#FF2E00" stroke="#FF2E00"/>
<path d="M117 109L117 19C117 13.4772 121.477 9 127 9H252" stroke="#FF2E00" stroke-width="3" stroke-dasharray="3"/>
<path fill-rule="evenodd" clip-rule="evenodd" d="M250 0V18L259 9L250 0Z" fill="#FF2E00"/>
<path d="M117 157L117 246C117 251.523 121.477 256 127 256H252" stroke="#FF2E00" stroke-width="3" stroke-dasharray="3"/>
<path fill-rule="evenodd" clip-rule="evenodd" d="M250 265V247L259 256L250 265Z" fill="#FF2E00"/>
</svg>
